<svg width="80" height="80" viewBox="0 0 80 80" fill="none" xmlns="http://www.w3.org/2000/svg">
<path d="M4.16699 40.0001C4.16699 59.7904 20.2101 75.8334 40.0003 75.8334C59.7907 75.8334 75.8337 59.7904 75.8337 40.0001C75.8337 32.9654 73.8067 26.4042 70.3047 20.8687C69.8223 20.1066 69.5813 19.7255 69.1523 19.6457C68.7237 19.566 68.3597 19.8362 67.632 20.3767C66.1633 21.4677 64.671 22.7171 63.1717 24.0946C59.289 27.6618 55.5473 31.9119 52.2647 36.0341C48.9887 40.1481 46.2107 44.0831 44.2507 46.9921C43.2717 48.4451 42.4997 49.6374 41.975 50.4631C41.7127 50.8757 41.512 51.1964 41.3783 51.4117L41.229 51.6537L41.1933 51.7124L41.1853 51.7257C40.573 52.7351 39.4707 53.3477 38.2903 53.3324C37.1097 53.3171 36.0253 52.6784 35.4397 51.6531C32.2754 46.1161 29.6615 43.6227 28.0888 42.5217C27.3073 41.9747 26.7756 41.7657 26.5417 41.6914C26.5278 41.6871 26.5208 41.6847 26.4943 41.6777C26.471 41.6717 26.4319 41.6634 26.4081 41.6594C26.3812 41.6551 26.3524 41.6517 26.2949 41.6454C24.6291 41.4604 23.3337 40.0477 23.3337 38.3327C23.3337 36.4917 24.8261 34.9994 26.667 34.9994C26.9304 34.9701 27.6784 34.9971 28.5631 35.3384C29.4751 35.6287 30.6101 36.1491 31.9119 37.0604C33.6763 38.2954 35.73 40.2357 37.9657 43.2794C38.1547 43.5367 38.5433 43.5317 38.722 43.2671C40.7507 40.2557 43.6343 36.1701 47.0497 31.8812C50.4583 27.6007 54.4373 23.066 58.6613 19.1853C60.0243 17.9329 61.4333 16.7295 62.8767 15.6155C63.797 14.9051 64.257 14.5499 64.267 14.0714C64.2767 13.5928 63.8603 13.2434 63.028 12.5445C56.8007 7.31578 48.7683 4.16675 40.0003 4.16675C20.2101 4.16675 4.16699 20.2099 4.16699 40.0001Z" fill="#35C61E"/>
</svg>
