<svg width="28" height="28" viewBox="0 0 28 28" fill="none" xmlns="http://www.w3.org/2000/svg">
<path d="M27.0738 11.3887H25.9998V11.3333H13.9998V16.6667H21.5352C20.4358 19.7713 17.4818 22 13.9998 22C9.58184 22 5.99984 18.418 5.99984 14C5.99984 9.58199 9.58184 5.99999 13.9998 5.99999C16.0392 5.99999 17.8945 6.76932 19.3072 8.02599L23.0785 4.25466C20.6972 2.03532 17.5118 0.666656 13.9998 0.666656C6.6365 0.666656 0.666504 6.63666 0.666504 14C0.666504 21.3633 6.6365 27.3333 13.9998 27.3333C21.3632 27.3333 27.3332 21.3633 27.3332 14C27.3332 13.106 27.2412 12.2333 27.0738 11.3887Z" fill="#FFD600"/>
<path d="M2.20384 7.79399L6.5845 11.0067C7.76984 8.07199 10.6405 5.99999 13.9998 5.99999C16.0392 5.99999 17.8945 6.76932 19.3072 8.02599L23.0785 4.25466C20.6972 2.03532 17.5118 0.666656 13.9998 0.666656C8.8785 0.666656 4.43717 3.55799 2.20384 7.79399Z" fill="#FF3D00"/>
<path d="M13.9998 27.3333C17.4438 27.3333 20.5732 26.0153 22.9392 23.872L18.8125 20.38C17.4289 21.4322 15.7381 22.0014 13.9998 22C10.5318 22 7.58717 19.7887 6.47784 16.7027L2.12984 20.0527C4.3365 24.3707 8.81784 27.3333 13.9998 27.3333Z" fill="#4CAF50"/>
<path d="M27.0738 11.3887H25.9998V11.3333H13.9998V16.6667H21.5352C21.0093 18.1443 20.0621 19.4354 18.8105 20.3807L18.8125 20.38L22.9392 23.872C22.6472 24.1373 27.3332 20.6667 27.3332 14C27.3332 13.106 27.2412 12.2333 27.0738 11.3887Z" fill="#1976D2"/>
</svg>
