<svg width="193" height="19" viewBox="0 0 193 19" fill="none" xmlns="http://www.w3.org/2000/svg">
<path d="M3.88352 0.545454V18H0.721591V0.545454H3.88352ZM21.4513 0.545454V18H18.6388L10.4143 6.1108H10.2695V18H7.10753V0.545454H9.93707L18.153 12.4432H18.3064V0.545454H21.4513ZM27.0318 0.545454L31.5744 14.2841H31.7534L36.2875 0.545454H39.7648L33.6114 18H29.708L23.5631 0.545454H27.0318ZM56.5229 9.27273C56.5229 11.1534 56.1706 12.7642 55.4661 14.1051C54.7672 15.4403 53.8126 16.4631 52.6024 17.1733C51.3979 17.8835 50.0314 18.2386 48.503 18.2386C46.9746 18.2386 45.6053 17.8835 44.395 17.1733C43.1905 16.4574 42.2359 15.4318 41.5314 14.0966C40.8325 12.7557 40.4831 11.1477 40.4831 9.27273C40.4831 7.39205 40.8325 5.78409 41.5314 4.44886C42.2359 3.10795 43.1905 2.08239 44.395 1.37216C45.6053 0.661931 46.9746 0.306818 48.503 0.306818C50.0314 0.306818 51.3979 0.661931 52.6024 1.37216C53.8126 2.08239 54.7672 3.10795 55.4661 4.44886C56.1706 5.78409 56.5229 7.39205 56.5229 9.27273ZM53.3439 9.27273C53.3439 7.94886 53.1365 6.83239 52.7217 5.92329C52.3126 5.00852 51.7445 4.31818 51.0172 3.85227C50.2899 3.38068 49.4518 3.14489 48.503 3.14489C47.5541 3.14489 46.7161 3.38068 45.9888 3.85227C45.2615 4.31818 44.6905 5.00852 44.2757 5.92329C43.8666 6.83239 43.6621 7.94886 43.6621 9.27273C43.6621 10.5966 43.8666 11.7159 44.2757 12.6307C44.6905 13.5398 45.2615 14.2301 45.9888 14.7017C46.7161 15.1676 47.5541 15.4006 48.503 15.4006C49.4518 15.4006 50.2899 15.1676 51.0172 14.7017C51.7445 14.2301 52.3126 13.5398 52.7217 12.6307C53.1365 11.7159 53.3439 10.5966 53.3439 9.27273ZM62.4741 0.545454V18H59.3122V0.545454H62.4741ZM80.6385 6.43466H77.451C77.3601 5.91193 77.1925 5.44886 76.9482 5.04545C76.7038 4.63636 76.3999 4.28977 76.0362 4.00568C75.6726 3.72159 75.2578 3.50852 74.7919 3.36648C74.3317 3.21875 73.8345 3.14489 73.3004 3.14489C72.3516 3.14489 71.5107 3.38352 70.7777 3.86079C70.0447 4.33239 69.4709 5.02557 69.0561 5.94034C68.6413 6.84943 68.4339 7.96023 68.4339 9.27273C68.4339 10.608 68.6413 11.733 69.0561 12.6477C69.4766 13.5568 70.0504 14.2443 70.7777 14.7102C71.5107 15.1705 72.3487 15.4006 73.2919 15.4006C73.8146 15.4006 74.3033 15.3324 74.7578 15.196C75.218 15.054 75.63 14.8466 75.9936 14.5739C76.3629 14.3011 76.6726 13.9659 76.9226 13.5682C77.1783 13.1705 77.3544 12.7159 77.451 12.2045L80.6385 12.2216C80.5192 13.0511 80.2607 13.8295 79.8629 14.5568C79.4709 15.2841 78.9567 15.9261 78.3203 16.483C77.6839 17.0341 76.9396 17.4659 76.0874 17.7784C75.2351 18.0852 74.2891 18.2386 73.2493 18.2386C71.7152 18.2386 70.3459 17.8835 69.1413 17.1733C67.9368 16.4631 66.9879 15.4375 66.2947 14.0966C65.6016 12.7557 65.255 11.1477 65.255 9.27273C65.255 7.39205 65.6044 5.78409 66.3033 4.44886C67.0021 3.10795 67.9538 2.08239 69.1584 1.37216C70.3629 0.661931 71.7266 0.306818 73.2493 0.306818C74.2209 0.306818 75.1243 0.443181 75.9595 0.715908C76.7947 0.988636 77.5391 1.3892 78.1925 1.91761C78.8459 2.44034 79.3828 3.08239 79.8033 3.84375C80.2294 4.59943 80.5078 5.46307 80.6385 6.43466ZM83.3341 18V0.545454H94.6864V3.19602H86.496V7.93466H94.0983V10.5852H86.496V15.3494H94.7545V18H83.3341ZM103.465 18V0.545454H110.011C111.352 0.545454 112.477 0.795454 113.386 1.29545C114.301 1.79545 114.991 2.48295 115.457 3.35795C115.928 4.22727 116.164 5.21591 116.164 6.32386C116.164 7.44318 115.928 8.4375 115.457 9.30682C114.985 10.1761 114.289 10.8608 113.369 11.3608C112.448 11.8551 111.315 12.1023 109.968 12.1023H105.63V9.50284H109.542C110.326 9.50284 110.968 9.36648 111.468 9.09375C111.968 8.82102 112.338 8.44602 112.576 7.96875C112.82 7.49148 112.943 6.94318 112.943 6.32386C112.943 5.70455 112.82 5.15909 112.576 4.6875C112.338 4.21591 111.965 3.84943 111.46 3.58807C110.96 3.32102 110.315 3.1875 109.525 3.1875H106.627V18H103.465ZM119.007 18H115.632L121.777 0.545454H125.68L131.834 18H128.459L123.797 4.125H123.66L119.007 18ZM119.118 11.1562H128.322V13.696H119.118V11.1562ZM133.933 18V0.545454H140.478C141.819 0.545454 142.944 0.778409 143.853 1.24432C144.768 1.71023 145.458 2.36364 145.924 3.20454C146.396 4.03977 146.631 5.0142 146.631 6.12784C146.631 7.24716 146.393 8.21875 145.915 9.04261C145.444 9.8608 144.748 10.4943 143.827 10.9432C142.907 11.3864 141.776 11.608 140.435 11.608H135.773V8.98295H140.009C140.793 8.98295 141.435 8.875 141.935 8.65909C142.435 8.4375 142.805 8.11648 143.043 7.69602C143.288 7.26989 143.41 6.74716 143.41 6.12784C143.41 5.50852 143.288 4.98011 143.043 4.54261C142.799 4.09943 142.427 3.7642 141.927 3.53693C141.427 3.30398 140.782 3.1875 139.992 3.1875H137.094V18H133.933ZM142.95 10.0909L147.271 18H143.742L139.498 10.0909H142.95ZM158.828 5.34375C158.748 4.59943 158.413 4.01989 157.822 3.60511C157.237 3.19034 156.475 2.98295 155.538 2.98295C154.879 2.98295 154.313 3.08239 153.842 3.28125C153.37 3.48011 153.01 3.75 152.76 4.09091C152.51 4.43182 152.382 4.82102 152.376 5.25852C152.376 5.62216 152.458 5.9375 152.623 6.20455C152.794 6.47159 153.024 6.69886 153.313 6.88636C153.603 7.06818 153.924 7.22159 154.277 7.34659C154.629 7.47159 154.984 7.5767 155.342 7.66193L156.978 8.07102C157.637 8.22443 158.271 8.43182 158.879 8.69318C159.492 8.95455 160.041 9.28409 160.524 9.68182C161.012 10.0795 161.399 10.5597 161.683 11.1222C161.967 11.6847 162.109 12.3437 162.109 13.0994C162.109 14.1222 161.848 15.0227 161.325 15.8011C160.802 16.5739 160.046 17.179 159.058 17.6165C158.075 18.0483 156.885 18.2642 155.487 18.2642C154.129 18.2642 152.95 18.054 151.95 17.6335C150.956 17.2131 150.177 16.5994 149.615 15.7926C149.058 14.9858 148.757 14.0028 148.711 12.8438H151.822C151.867 13.4517 152.055 13.9574 152.385 14.3608C152.714 14.7642 153.143 15.0653 153.671 15.2642C154.206 15.4631 154.802 15.5625 155.461 15.5625C156.149 15.5625 156.751 15.4602 157.268 15.2557C157.791 15.0455 158.2 14.7557 158.495 14.3864C158.791 14.0114 158.941 13.5739 158.947 13.0739C158.941 12.6193 158.808 12.2443 158.546 11.9489C158.285 11.6477 157.919 11.3977 157.447 11.1989C156.981 10.9943 156.436 10.8125 155.811 10.6534L153.825 10.142C152.387 9.77273 151.251 9.21307 150.416 8.46307C149.586 7.70739 149.171 6.70455 149.171 5.45454C149.171 4.42614 149.45 3.52557 150.007 2.75284C150.569 1.98011 151.333 1.38068 152.299 0.954545C153.265 0.522727 154.359 0.306818 155.581 0.306818C156.819 0.306818 157.904 0.522727 158.836 0.954545C159.774 1.38068 160.51 1.97443 161.044 2.73579C161.578 3.49148 161.853 4.3608 161.87 5.34375H158.828ZM164.728 18V0.545454H176.08V3.19602H167.89V7.93466H175.492V10.5852H167.89V15.3494H176.148V18H164.728ZM179.106 18V0.545454H185.651C186.992 0.545454 188.117 0.778409 189.026 1.24432C189.941 1.71023 190.632 2.36364 191.097 3.20454C191.569 4.03977 191.805 5.0142 191.805 6.12784C191.805 7.24716 191.566 8.21875 191.089 9.04261C190.617 9.8608 189.921 10.4943 189.001 10.9432C188.08 11.3864 186.95 11.608 185.609 11.608H180.947V8.98295H185.183C185.967 8.98295 186.609 8.875 187.109 8.65909C187.609 8.4375 187.978 8.11648 188.217 7.69602C188.461 7.26989 188.583 6.74716 188.583 6.12784C188.583 5.50852 188.461 4.98011 188.217 4.54261C187.972 4.09943 187.6 3.7642 187.1 3.53693C186.6 3.30398 185.955 3.1875 185.166 3.1875H182.268V18H179.106ZM188.123 10.0909L192.444 18H188.916L184.671 10.0909H188.123Z" fill="white"/>
</svg>
