<svg width="30" height="36" viewBox="0 0 30 36" fill="none" xmlns="http://www.w3.org/2000/svg">
<path fill-rule="evenodd" clip-rule="evenodd" d="M17.749 0.245219C18 0.490421 18 0.885081 18 1.67442V5.05493V5.13882C18 6.34216 17.9998 7.36953 18.1128 8.1902C18.2335 9.06602 18.5035 9.89203 19.1877 10.5604C19.872 11.2287 20.7177 11.4924 21.6142 11.6102C22.4544 11.7205 23.5063 11.7205 24.7382 11.7204H28.2857C29.0938 11.7204 29.4979 11.7204 29.749 11.9656C30 12.2108 30 12.6055 30 13.3948V24.7896C30 27.0795 30 28.9253 29.8003 30.3768C29.5929 31.8839 29.149 33.153 28.1172 34.1608C27.0852 35.1688 25.7861 35.6023 24.2431 35.8049C22.7568 36 20.8671 36 18.5227 36H11.4774C9.13293 36 7.24324 36 5.757 35.8049C4.21396 35.6023 2.91475 35.1688 1.88289 34.1608C0.851041 33.153 0.407212 31.8839 0.199767 30.3768C-5.06469e-05 28.9253 -3.33962e-05 27.0795 8.895e-07 24.7896V11.2104C-3.33962e-05 8.92055 -5.06469e-05 7.07477 0.199767 5.62311C0.407212 4.11595 0.851041 2.84696 1.88289 1.8391C2.91475 0.831232 4.21396 0.397742 5.757 0.195104C7.24322 -6.60197e-05 9.13289 -3.26111e-05 11.4773 8.77216e-07H16.2857C17.0938 8.77216e-07 17.4979 9.48129e-07 17.749 0.245219ZM29.7717 9.20012C29.7734 9.20424 29.7703 9.20878 29.7657 9.20878H24.8242C23.4825 9.20878 22.6054 9.20612 21.9569 9.12094C21.3454 9.04064 21.1329 8.90826 21.006 8.78436C20.8791 8.66047 20.7435 8.45283 20.6614 7.85553C20.5742 7.2221 20.5714 6.3655 20.5714 5.05493V0.229195C20.5714 0.224457 20.5764 0.221242 20.5809 0.22305C21.1409 0.449632 21.5657 0.866998 21.9593 1.2537L22.0562 1.34868L28.6191 7.75905L28.7163 7.85364C29.1123 8.23812 29.5397 8.65309 29.7717 9.20012ZM8.14286 16.7437C7.43278 16.7437 6.85714 17.306 6.85714 17.9995C6.85714 18.6931 7.43278 19.2553 8.14286 19.2553H21.8571C22.5672 19.2553 23.1429 18.6931 23.1429 17.9995C23.1429 17.306 22.5672 16.7437 21.8571 16.7437H8.14286ZM8.14286 21.7669C7.43278 21.7669 6.85714 22.3292 6.85714 23.0228C6.85714 23.7163 7.43278 24.2786 8.14286 24.2786H21.8571C22.5672 24.2786 23.1429 23.7163 23.1429 23.0228C23.1429 22.3292 22.5672 21.7669 21.8571 21.7669H8.14286ZM8.14286 26.7902C7.43278 26.7902 6.85714 27.3525 6.85714 28.046C6.85714 28.7396 7.43278 29.3018 8.14286 29.3018H19.2857C19.9958 29.3018 20.5714 28.7396 20.5714 28.046C20.5714 27.3525 19.9958 26.7902 19.2857 26.7902H8.14286Z" fill="#2F88FF"/>
</svg>
