<svg width="36" height="36" viewBox="0 0 36 36" fill="none" xmlns="http://www.w3.org/2000/svg">
<path d="M31.1458 34.5842H13.3481C11.1141 34.5842 9.30313 32.7733 9.30313 30.5393V5.46066C9.30313 3.22669 11.1141 1.41571 13.3481 1.41571H24.1366L35.1908 12.4699V30.5393C35.1908 32.7733 33.3798 34.5842 31.1458 34.5842Z" fill="#EEF1F7" stroke="#CBD0DC" stroke-width="1.61798"/>
<rect y="15.9775" width="24.2697" height="14.1573" rx="2.83146" fill="#D82042"/>
<path d="M4.02246 26.4944V19.7283H6.4342C6.9606 19.7283 7.39669 19.8241 7.74249 20.0157C8.08828 20.2073 8.34707 20.4694 8.51887 20.802C8.69067 21.1324 8.77656 21.5046 8.77656 21.9187C8.77656 22.3349 8.68956 22.7094 8.51557 23.0419C8.34377 23.3723 8.08388 23.6344 7.73588 23.8282C7.39009 24.0198 6.95509 24.1157 6.4309 24.1157H4.77241V23.2501H6.33839C6.67097 23.2501 6.94078 23.1928 7.14781 23.0783C7.35485 22.9615 7.50682 22.803 7.60373 22.6025C7.70064 22.4021 7.7491 22.1742 7.7491 21.9187C7.7491 21.6632 7.70064 21.4363 7.60373 21.2381C7.50682 21.0399 7.35375 20.8846 7.14451 20.7723C6.93747 20.6599 6.66436 20.6038 6.32518 20.6038H5.04332V26.4944H4.02246Z" fill="white"/>
<path d="M12.1637 26.4944H9.97335V19.7283H12.2331C12.8961 19.7283 13.4654 19.8637 13.9412 20.1346C14.4169 20.4033 14.7814 20.7899 15.0347 21.2943C15.2902 21.7964 15.4179 22.3988 15.4179 23.1014C15.4179 23.8062 15.2891 24.4119 15.0314 24.9185C14.7759 25.425 14.4059 25.8149 13.9213 26.088C13.4368 26.3589 12.8509 26.4944 12.1637 26.4944ZM10.9942 25.6023H12.1076C12.623 25.6023 13.0513 25.5054 13.3927 25.3116C13.7341 25.1156 13.9896 24.8326 14.1592 24.4626C14.3288 24.0903 14.4136 23.6366 14.4136 23.1014C14.4136 22.5706 14.3288 22.1202 14.1592 21.7502C13.9918 21.3801 13.7418 21.0993 13.4093 20.9077C13.0767 20.7161 12.6637 20.6203 12.1703 20.6203H10.9942V25.6023Z" fill="white"/>
<path d="M16.6874 26.4944V19.7283H20.8832V20.6071H17.7083V22.6686H20.5825V23.5441H17.7083V26.4944H16.6874Z" fill="white"/>
</svg>
