<svg width="64" height="64" viewBox="0 0 64 64" fill="none" xmlns="http://www.w3.org/2000/svg">
<path d="M14.1912 25.8211C20.6276 14.4319 23.8458 8.73728 28.2621 7.27142C30.6914 6.46499 33.3085 6.46499 35.7378 7.27142C40.1541 8.73728 43.3722 14.4319 49.8087 25.8211C56.2453 37.2101 59.4634 42.9048 58.4981 47.5448C57.9669 50.0976 56.6583 52.4128 54.7599 54.1592C51.3093 57.3333 44.873 57.3333 31.9999 57.3333C19.127 57.3333 12.6905 57.3333 9.23982 54.1592C7.34148 52.4128 6.03297 50.0976 5.50185 47.5448C4.53643 42.9048 7.75467 37.2101 14.1912 25.8211Z" stroke="#FFD600" stroke-width="4"/>
<path d="M31.9788 42.6667H32.0028" stroke="#FFD600" stroke-width="4" stroke-linecap="round" stroke-linejoin="round"/>
<path d="M32 34.6667V23.9999" stroke="#FFD600" stroke-width="4" stroke-linecap="round" stroke-linejoin="round"/>
</svg>
