<svg width="20" height="20" viewBox="0 0 20 20" fill="none" xmlns="http://www.w3.org/2000/svg">
<path d="M5.83317 1.66671C5.83317 1.20647 5.46007 0.833374 4.99984 0.833374C4.5396 0.833374 4.1665 1.20647 4.1665 1.66671V2.04075C4.48344 1.94022 4.82112 1.86844 5.17928 1.81638C5.3859 1.78635 5.60377 1.76234 5.83317 1.74315V1.66671Z" fill="#212121"/>
<path d="M15.8332 2.04075C15.5163 1.94022 15.1786 1.86844 14.8204 1.81638C14.6138 1.78635 14.3959 1.76234 14.1665 1.74315V1.66671C14.1665 1.20647 14.5396 0.833374 14.9998 0.833374C15.4601 0.833374 15.8332 1.20647 15.8332 1.66671V2.04075Z" fill="#212121"/>
<path fill-rule="evenodd" clip-rule="evenodd" d="M10.8573 1.66663H9.14267C7.51912 1.6666 6.20951 1.66658 5.17944 1.8163C4.10446 1.97254 3.214 2.30647 2.51502 3.06213C1.82458 3.80855 1.52733 4.74389 1.3868 5.87384C1.24998 6.97408 1.24998 8.37838 1.25 10.1449V10.6884C1.24998 12.4549 1.24998 13.8592 1.3868 14.9594C1.52733 16.0894 1.82458 17.0247 2.51502 17.7711C3.214 18.5268 4.10446 18.8607 5.17944 19.017C6.20952 19.1667 7.51911 19.1666 9.14267 19.1666H10.8573C12.4809 19.1666 13.7905 19.1667 14.8206 19.017C15.8956 18.8607 16.786 18.5268 17.485 17.7711C18.1754 17.0247 18.4727 16.0894 18.6132 14.9594C18.75 13.8592 18.75 12.4549 18.75 10.6884V10.1449C18.75 8.37838 18.75 6.97408 18.6132 5.87384C18.4727 4.74389 18.1754 3.80855 17.485 3.06213C16.786 2.30647 15.8956 1.97254 14.8206 1.8163C13.7905 1.66658 12.4809 1.6666 10.8573 1.66663ZM3.74819 7.49996C3.36601 7.49996 3.17492 7.49996 3.05321 7.6201C2.93151 7.74023 2.92906 7.92889 2.92417 8.30622C2.91689 8.86721 2.91667 9.49513 2.91667 10.2026V10.6306C2.91667 12.468 2.91818 13.7684 3.04073 14.7537C3.16106 15.7213 3.38553 16.2578 3.73852 16.6394C4.08297 17.0118 4.55392 17.2419 5.41917 17.3676C6.31548 17.4979 7.50354 17.5 9.20833 17.5H10.7917C12.4964 17.5 13.6845 17.4979 14.5808 17.3676C15.4461 17.2419 15.917 17.0118 16.2615 16.6394C16.6145 16.2578 16.8389 15.7213 16.9593 14.7537C17.0818 13.7684 17.0833 12.468 17.0833 10.6306V10.2026C17.0833 9.49513 17.0831 8.86721 17.0758 8.30622C17.0709 7.92889 17.0685 7.74023 16.9468 7.6201C16.8251 7.49996 16.634 7.49996 16.2518 7.49996H3.74819Z" fill="#212121"/>
<path fill-rule="evenodd" clip-rule="evenodd" d="M5.625 10.8333C5.625 10.258 6.09137 9.79163 6.66667 9.79163H6.67414C7.24944 9.79163 7.71581 10.258 7.71581 10.8333C7.71581 11.4086 7.24944 11.875 6.67414 11.875H6.66667C6.09137 11.875 5.625 11.4086 5.625 10.8333ZM8.95458 10.8333C8.95458 10.258 9.421 9.79163 9.99625 9.79163H10.0038C10.579 9.79163 11.0454 10.258 11.0454 10.8333C11.0454 11.4086 10.579 11.875 10.0038 11.875H9.99625C9.421 11.875 8.95458 11.4086 8.95458 10.8333ZM12.2842 10.8333C12.2842 10.258 12.7506 9.79163 13.3258 9.79163H13.3333C13.9087 9.79163 14.375 10.258 14.375 10.8333C14.375 11.4086 13.9087 11.875 13.3333 11.875H13.3258C12.7506 11.875 12.2842 11.4086 12.2842 10.8333ZM5.625 14.1666C5.625 13.5913 6.09137 13.125 6.66667 13.125H6.67414C7.24944 13.125 7.71581 13.5913 7.71581 14.1666C7.71581 14.742 7.24944 15.2083 6.67414 15.2083H6.66667C6.09137 15.2083 5.625 14.742 5.625 14.1666ZM8.95458 14.1666C8.95458 13.5913 9.421 13.125 9.99625 13.125H10.0038C10.579 13.125 11.0454 13.5913 11.0454 14.1666C11.0454 14.742 10.579 15.2083 10.0038 15.2083H9.99625C9.421 15.2083 8.95458 14.742 8.95458 14.1666Z" fill="#212121"/>
</svg>
