<svg width="64" height="64" viewBox="0 0 64 64" fill="none" xmlns="http://www.w3.org/2000/svg">
<path fill-rule="evenodd" clip-rule="evenodd" d="M26.6665 16C26.6665 14.5273 27.8604 13.3333 29.3332 13.3333H55.9998C57.4726 13.3333 58.6665 14.5273 58.6665 16C58.6665 17.4728 57.4726 18.6667 55.9998 18.6667H29.3332C27.8604 18.6667 26.6665 17.4728 26.6665 16Z" fill="#E7E7E7"/>
<path fill-rule="evenodd" clip-rule="evenodd" d="M26.6665 32C26.6665 30.5272 27.8604 29.3333 29.3332 29.3333H55.9998C57.4726 29.3333 58.6665 30.5272 58.6665 32C58.6665 33.4728 57.4726 34.6667 55.9998 34.6667H29.3332C27.8604 34.6667 26.6665 33.4728 26.6665 32Z" fill="#E7E7E7"/>
<path fill-rule="evenodd" clip-rule="evenodd" d="M26.6665 48C26.6665 46.5272 27.8604 45.3333 29.3332 45.3333H55.9998C57.4726 45.3333 58.6665 46.5272 58.6665 48C58.6665 49.4728 57.4726 50.6667 55.9998 50.6667H29.3332C27.8604 50.6667 26.6665 49.4728 26.6665 48Z" fill="#E7E7E7"/>
<path d="M23.5951 9.25367C24.3757 10.5026 23.996 12.1478 22.7471 12.9283C20.6853 14.217 18.6256 17.0312 16.9825 19.9067C16.196 21.2831 15.5638 22.5667 15.1285 23.5065C14.9624 23.8605 14.6247 24.6431 14.4766 24.9902C14.0898 25.9565 13.1755 26.6107 12.136 26.6636C11.0961 26.7165 10.1206 26.1593 9.63785 25.2369C9.17588 24.3542 8.42862 23.5277 7.71268 22.8807C7.43284 22.6178 6.81657 22.1494 6.54342 21.948C5.31036 21.1436 4.96246 19.492 5.76646 18.2585C6.57068 17.0247 8.22281 16.6764 9.45662 17.4806C9.8198 17.7254 10.7156 18.3757 11.3931 19.019C11.6829 18.4622 12.0034 17.8705 12.3518 17.2606C14.042 14.3028 16.649 10.4504 19.9205 8.4057C21.1694 7.62514 22.8146 8.00479 23.5951 9.25367Z" fill="#E7E7E7"/>
<path d="M23.5951 38.5869C24.3757 39.836 23.996 41.4811 22.7471 42.2616C20.6853 43.5504 18.6256 46.3645 16.9825 49.24C16.196 50.6165 15.5638 51.9 15.1285 52.8397C14.9624 53.1939 14.6247 53.9765 14.4766 54.3235C14.0898 55.2899 13.1755 55.944 12.136 55.9968C11.0961 56.0499 10.1206 55.4928 9.63785 54.5701C9.17588 53.6875 8.42862 52.8611 7.71268 52.2141C7.43284 51.9512 6.81657 51.4827 6.54342 51.2813C5.31036 50.4771 4.96246 48.8253 5.76646 47.5917C6.57068 46.3581 8.22281 46.0099 9.45662 46.8139C9.8198 47.0587 10.7156 47.7091 11.3931 48.3523C11.6829 47.7955 12.0034 47.2037 12.3518 46.5939C14.042 43.6363 16.649 39.7837 19.9205 37.7389C21.1694 36.9584 22.8146 37.3381 23.5951 38.5869Z" fill="#E7E7E7"/>
</svg>
