<svg width="20" height="20" viewBox="0 0 20 20" fill="none" xmlns="http://www.w3.org/2000/svg">
<path d="M16.3505 13.0119L16.3505 13.0119C17.1163 13.2814 17.986 12.9154 18.1921 12.1147C18.1921 12.1147 18.1921 12.1147 18.1921 12.1147L18.6763 12.2394L16.3505 13.0119ZM16.3505 13.0119C15.6817 12.7766 15.3847 12.0222 15.5472 11.3537C15.6527 10.9199 15.7087 10.4666 15.7087 9.99996C15.7087 6.84733 13.153 4.29163 10.0003 4.29163C6.8477 4.29163 4.29199 6.84733 4.29199 9.99996C4.29199 13.1526 6.8477 15.7083 10.0003 15.7083C10.75 15.7083 11.4656 15.5638 12.1211 15.3014L12.1211 15.3014M16.3505 13.0119L12.1211 15.3014M12.1211 15.3014C12.6757 15.0793 13.3335 15.1102 13.8068 15.5056M12.1211 15.3014L13.8068 15.5056M13.8068 15.5056C14.1626 15.803 14.3348 16.231 14.311 16.6381L13.8068 15.5056Z" fill="#0075FF" stroke="white" stroke-linecap="round"/>
</svg>
