<svg width="14" height="14" viewBox="0 0 14 14" fill="none" xmlns="http://www.w3.org/2000/svg">
<path d="M8.20998 2.26647L7.65886 1.75779L7.65885 1.75779L8.20998 2.26647ZM9.09298 1.42267L8.70959 0.778062L8.70959 0.778066L9.09298 1.42267ZM10.9031 1.39548L11.2671 0.73977L11.2671 0.739752L10.9031 1.39548ZM12.6096 3.13883L11.9474 3.49101L11.9475 3.49112L12.6096 3.13883ZM12.583 4.98787L11.9314 4.6165L11.9314 4.61652L12.583 4.98787ZM11.757 5.88988L12.2773 6.43006L12.2773 6.43005L11.757 5.88988ZM6.27151 11.1733L5.75122 10.6331L5.75121 10.6331L6.27151 11.1733ZM4.41503 12.6488L4.14221 11.9502L4.14214 11.9502L4.41503 12.6488ZM2.06845 12.815L2.08805 12.0652L2.088 12.0652L2.06845 12.815ZM1.90513 12.8107L1.8855 13.5605L1.88558 13.5605L1.90513 12.8107ZM1.25075 12.6758L1.81354 12.18L1.81341 12.1799L1.25075 12.6758ZM1.18804 11.9969L0.440306 11.9386L0.440306 11.9386L1.18804 11.9969ZM1.20379 11.7948L1.95152 11.853L1.95152 11.853L1.20379 11.7948ZM1.53082 9.75224L2.21871 10.0511L2.21871 10.0511L1.53082 9.75224ZM2.79416 8.13425L2.24303 7.62557L2.24302 7.62558L2.79416 8.13425ZM8.16699 12.0833C7.75278 12.0833 7.41699 12.4191 7.41699 12.8333C7.41699 13.2475 7.75278 13.5833 8.16699 13.5833V12.0833ZM12.8337 13.5833C13.2479 13.5833 13.5837 13.2475 13.5837 12.8333C13.5837 12.4191 13.2479 12.0833 12.8337 12.0833V13.5833ZM8.76111 2.77516C9.23272 2.2642 9.36298 2.13471 9.47637 2.06727L8.70959 0.778066C8.36109 0.985342 8.05665 1.32681 7.65886 1.75779L8.76111 2.77516ZM9.47636 2.06727C9.80435 1.8722 10.2059 1.86629 10.539 2.05121L11.2671 0.739752C10.467 0.295564 9.49612 0.31027 8.70959 0.778062L9.47636 2.06727ZM10.539 2.05119C10.654 2.11507 10.7878 2.24038 11.274 2.73705L12.3459 1.68775C11.9359 1.26901 11.6217 0.936613 11.2671 0.73977L10.539 2.05119ZM11.274 2.73705C11.7592 3.2327 11.8833 3.37052 11.9474 3.49101L13.2718 2.78666C13.0807 2.4274 12.7568 2.10751 12.3459 1.68775L11.274 2.73705ZM11.9475 3.49112C12.1347 3.84297 12.1284 4.27081 11.9314 4.6165L13.2346 5.35924C13.6865 4.56636 13.7004 3.59225 13.2717 2.78655L11.9475 3.49112ZM11.9314 4.61652C11.8639 4.73489 11.736 4.86881 11.2367 5.3497L12.2773 6.43005C12.7001 6.02285 13.0332 5.71272 13.2346 5.35922L11.9314 4.61652ZM11.2367 5.34969L5.75122 10.6331L6.7918 11.7135L12.2773 6.43006L11.2367 5.34969ZM5.75121 10.6331C4.83275 11.5178 4.51599 11.8042 4.14221 11.9502L4.68785 13.3474C5.40599 13.067 5.96293 12.5118 6.79181 11.7135L5.75121 10.6331ZM4.14214 11.9502C3.77 12.0956 3.35034 12.0982 2.08805 12.0652L2.04885 13.5647C3.18738 13.5945 3.96813 13.6285 4.68791 13.3474L4.14214 11.9502ZM2.088 12.0652L1.92468 12.061L1.88558 13.5605L2.04891 13.5647L2.088 12.0652ZM1.92476 12.061C1.8305 12.0585 1.76125 12.0566 1.7029 12.0536C1.64409 12.0505 1.61587 12.0471 1.6042 12.0451C1.59299 12.0432 1.61935 12.0462 1.66247 12.0662C1.71209 12.0893 1.76676 12.1269 1.81354 12.18L0.687967 13.1715C0.900461 13.4128 1.16544 13.4926 1.35727 13.5246C1.52579 13.5528 1.72502 13.5563 1.8855 13.5605L1.92476 12.061ZM1.81341 12.1799C1.86006 12.2328 1.8893 12.2902 1.90505 12.3385C1.91867 12.3803 1.91833 12.4033 1.91753 12.389C1.91671 12.3744 1.91642 12.3433 1.91963 12.2825C1.92281 12.2222 1.92831 12.151 1.93577 12.0552L0.440306 11.9386C0.427461 12.1035 0.410369 12.3024 0.41985 12.4725C0.43045 12.6626 0.477767 12.933 0.6881 13.1717L1.81341 12.1799ZM1.93577 12.0552L1.95152 11.853L0.456056 11.7365L0.440306 11.9386L1.93577 12.0552ZM1.95152 11.853C2.03708 10.7548 2.07579 10.38 2.21871 10.0511L0.84294 9.45338C0.576659 10.0663 0.533754 10.7392 0.456055 11.7365L1.95152 11.853ZM2.21871 10.0511C2.36105 9.72345 2.60533 9.44466 3.3453 8.64292L2.24302 7.62558C1.57133 8.35334 1.10978 8.83919 0.842937 9.45339L2.21871 10.0511ZM3.34529 8.64293L8.76111 2.77515L7.65885 1.75779L2.24303 7.62557L3.34529 8.64293ZM7.05268 2.86364L11.136 6.94698L12.1967 5.88632L8.11334 1.80298L7.05268 2.86364ZM8.16699 13.5833H12.8337V12.0833H8.16699V13.5833Z" fill="#0075FF"/>
</svg>
