<svg width="40" height="40" viewBox="0 0 40 40" fill="none" xmlns="http://www.w3.org/2000/svg">
<path d="M36.6668 20C36.6668 29.2047 29.2048 36.6667 20.0002 36.6667C10.7954 36.6667 3.3335 29.2047 3.3335 20C3.3335 10.7952 10.7954 3.33333 20.0002 3.33333C29.2048 3.33333 36.6668 10.7952 36.6668 20Z" stroke="white" stroke-width="3"/>
<path d="M24.5832 15.8333C24.5832 18.3647 22.5312 20.4167 19.9998 20.4167C17.4685 20.4167 15.4165 18.3647 15.4165 15.8333C15.4165 13.302 17.4685 11.25 19.9998 11.25C22.5312 11.25 24.5832 13.302 24.5832 15.8333Z" stroke="white" stroke-width="3"/>
<path d="M9.1665 31.6668L10.1005 30.0323C11.5842 27.436 14.3454 25.8335 17.3359 25.8335H22.6638C25.6543 25.8335 28.4154 27.436 29.8991 30.0323L30.8331 31.6668" stroke="white" stroke-width="3" stroke-linecap="round" stroke-linejoin="round"/>
</svg>
